<?xml version="1.0" standalone="no"?>
<!DOCTYPE svg PUBLIC "-//W3C//DTD SVG 20010904//EN"
 "http://www.w3.org/TR/2001/REC-SVG-20010904/DTD/svg10.dtd">
<svg version="1.0" xmlns="http://www.w3.org/2000/svg"
 width="1280.000000pt" height="1280.000000pt" viewBox="0 0 1280.000000 1280.000000"
 preserveAspectRatio="xMidYMid meet">
<metadata>
Created by potrace 1.15, written by Peter Selinger 2001-2017
</metadata>
<g transform="translate(0.000000,1280.000000) scale(0.100000,-0.100000)"
fill="#000000" stroke="none">
<path d="M3526 11419 c-186 -19 -365 -73 -537 -161 -463 -237 -791 -703 -949
-1348 -62 -256 -89 -525 -85 -850 4 -331 43 -622 130 -966 141 -563 344 -1095
771 -2019 583 -1263 756 -1735 805 -2190 13 -121 7 -329 -12 -442 l-12 -73
-45 0 c-37 0 -43 3 -38 16 35 92 46 413 21 594 -41 284 -183 678 -335 925
-165 270 -402 492 -643 605 -133 62 -221 83 -362 84 -234 2 -331 -68 -365
-265 -34 -194 81 -373 355 -555 66 -43 228 -144 360 -222 340 -203 466 -293
611 -437 218 -217 283 -363 284 -632 l0 -123 -37 -19 c-49 -25 -110 -86 -135
-136 -29 -56 -35 -158 -14 -222 9 -28 32 -68 51 -90 l34 -41 -57 -54 c-236
-224 -548 -279 -821 -145 -105 51 -191 133 -244 232 -21 39 -35 59 -31 45 36
-136 191 -277 370 -336 81 -26 102 -29 224 -29 150 0 210 14 341 81 38 19 70
34 72 34 2 0 -17 -42 -43 -94 -63 -125 -83 -210 -82 -345 1 -125 17 -193 72
-310 49 -103 144 -203 237 -250 34 -17 68 -31 74 -31 7 0 -17 15 -52 32 -93
48 -197 153 -242 248 -96 201 -91 444 13 637 44 82 109 169 164 222 l36 35 52
-19 c109 -39 231 -15 319 63 31 27 45 32 129 40 314 31 544 -57 766 -290 130
-137 239 -296 464 -673 78 -132 168 -276 198 -320 107 -154 241 -274 344 -311
56 -19 200 -19 266 1 68 21 132 79 163 148 22 47 24 66 24 202 0 143 -2 154
-33 245 -123 354 -400 642 -817 848 -218 108 -414 177 -655 229 -115 25 -143
27 -350 27 -198 1 -235 -2 -310 -21 -47 -12 -93 -25 -104 -29 -17 -6 -18 -3
-11 37 4 24 12 47 18 51 7 4 54 15 107 25 128 24 432 24 575 -1 421 -72 900
-254 2000 -761 960 -442 1415 -620 1970 -770 608 -165 1138 -204 1668 -125
341 52 666 157 902 292 470 269 744 625 847 1098 30 141 32 470 4 625 -70 384
-229 699 -477 945 -207 204 -524 382 -814 455 -275 70 -609 79 -930 24 -147
-25 -211 -41 -635 -163 -476 -138 -630 -171 -852 -183 -300 -16 -466 72 -530
280 -25 85 -22 198 9 268 54 121 178 199 318 199 150 0 264 -76 311 -207 7
-21 13 -30 14 -20 0 33 -44 112 -88 154 -62 60 -136 87 -242 87 -104 0 -176
-25 -244 -85 -61 -54 -93 -111 -111 -197 -37 -174 53 -374 201 -450 93 -48
150 -57 329 -56 252 2 390 31 1041 218 422 121 669 163 914 154 l95 -3 -70 -8
c-307 -33 -532 -109 -725 -246 -147 -104 -298 -285 -369 -443 -53 -118 -43
-113 18 7 145 289 377 482 706 590 256 84 628 88 903 9 308 -88 520 -209 728
-418 279 -280 439 -643 474 -1080 36 -435 -101 -834 -394 -1152 -221 -241
-511 -415 -891 -537 -202 -65 -418 -106 -672 -127 -180 -16 -582 -8 -751 14
-681 90 -1364 323 -2607 891 -1215 556 -1672 722 -2129 776 -134 16 -404 6
-519 -19 -60 -12 -90 -15 -92 -8 -25 101 -40 131 -83 174 -26 26 -62 55 -80
64 -24 13 -32 23 -28 35 36 112 46 421 20 605 -61 445 -241 927 -794 2133
-355 775 -593 1380 -714 1820 -123 450 -175 797 -176 1175 0 415 57 767 177
1100 194 536 560 928 1016 1089 138 49 265 71 437 78 315 12 592 -47 875 -188
444 -220 737 -610 846 -1129 26 -125 37 -414 19 -543 -38 -286 -155 -537 -337
-728 -91 -95 -171 -155 -298 -222 -49 -26 -79 -45 -65 -41 14 3 59 24 100 46
328 175 561 523 621 928 17 119 33 102 25 -27 -16 -250 -57 -453 -160 -798
-89 -295 -173 -636 -196 -795 -40 -266 -18 -465 66 -588 88 -131 292 -202 449
-158 135 38 221 132 255 275 25 105 -11 244 -83 319 -32 34 -115 82 -139 82
-7 0 10 -11 37 -24 58 -27 118 -89 149 -155 17 -37 21 -65 21 -141 0 -85 -3
-101 -29 -154 -71 -144 -214 -215 -376 -186 -311 56 -402 312 -299 840 31 158
130 528 209 780 163 519 178 1050 40 1461 -65 194 -196 430 -330 594 -295 360
-771 582 -1290 599 -74 3 -175 1 -224 -5z"/>
<path d="M3323 11031 c-54 -14 -96 -45 -121 -91 -23 -43 -24 -50 -17 -175 13
-262 -34 -357 -370 -740 -256 -293 -377 -459 -465 -640 -132 -273 -155 -586
-70 -979 21 -96 100 -349 107 -342 2 2 -7 58 -21 124 -85 399 -48 754 106
1027 132 235 284 387 688 690 194 145 299 235 365 314 159 189 205 429 119
621 -57 129 -208 218 -321 191z"/>
<path d="M3033 8690 c-304 -99 -476 -506 -434 -1029 31 -397 100 -747 203
-1031 33 -91 109 -262 114 -257 2 2 -12 43 -32 93 -177 451 -204 893 -70 1149
41 80 169 207 276 276 47 31 129 84 182 118 204 132 284 266 257 431 -18 113
-75 187 -184 237 -82 37 -219 43 -312 13z"/>
<path d="M4528 8483 c7 -3 16 -2 19 1 4 3 -2 6 -13 5 -11 0 -14 -3 -6 -6z"/>
<path d="M4488 8473 c7 -3 16 -2 19 1 4 3 -2 6 -13 5 -11 0 -14 -3 -6 -6z"/>
<path d="M4418 8463 c6 -2 18 -2 25 0 6 3 1 5 -13 5 -14 0 -19 -2 -12 -5z"/>
<path d="M4288 8453 c12 -2 30 -2 40 0 9 3 -1 5 -23 4 -22 0 -30 -2 -17 -4z"/>
<path d="M5578 7813 c7 -3 16 -2 19 1 4 3 -2 6 -13 5 -11 0 -14 -3 -6 -6z"/>
<path d="M3620 7430 c-169 -39 -336 -142 -436 -268 -58 -74 -119 -197 -146
-297 -29 -110 -32 -409 -4 -560 64 -349 185 -702 451 -1309 110 -252 209 -596
240 -831 10 -71 20 -132 22 -135 3 -3 2 45 -1 105 -21 345 -100 646 -316 1210
-205 534 -266 727 -296 926 -19 128 -15 288 10 376 65 237 220 373 425 373
130 0 248 -46 396 -152 109 -79 156 -104 237 -124 100 -26 214 2 275 68 58 62
70 172 33 293 -20 61 -31 78 -94 141 -81 81 -187 139 -322 175 -117 32 -357
36 -474 9z"/>
<path d="M2272 6558 c-32 -32 5 -144 83 -254 27 -37 100 -121 163 -187 153
-161 330 -361 420 -475 41 -50 76 -92 78 -92 10 0 -190 383 -266 510 -144 243
-308 443 -399 490 -46 23 -62 25 -79 8z"/>
<path d="M2050 6218 c-83 -44 -54 -165 70 -287 42 -41 117 -96 196 -145 372
-230 635 -421 818 -595 43 -41 63 -55 52 -37 -233 376 -388 581 -595 786 -124
123 -230 202 -336 251 -75 36 -166 47 -205 27z"/>
<path d="M4929 5504 c-71 -76 -300 -195 -534 -278 -425 -151 -569 -269 -622
-506 -13 -59 -16 -111 -13 -245 2 -93 4 -328 5 -520 l0 -350 30 40 c70 92 269
210 540 320 270 109 407 219 486 390 52 115 60 187 63 555 3 351 12 443 55
566 11 30 18 54 17 54 -1 0 -13 -12 -27 -26z"/>
<path d="M6048 4380 c-34 -20 -188 -50 -311 -60 -70 -5 -201 -7 -290 -4 -176
7 -372 -7 -460 -33 -215 -63 -361 -223 -482 -530 -92 -234 -194 -412 -288
-504 l-54 -54 341 0 c188 0 422 -2 521 -3 153 -3 191 0 257 17 109 28 174 65
245 137 77 79 153 228 244 479 73 204 170 399 245 495 30 38 54 70 52 70 -2 0
-10 -5 -20 -10z"/>
<path d="M9036 4014 c-4 -14 -5 -28 -3 -31 3 -2 8 8 11 23 4 14 5 28 3 31 -3
2 -8 -8 -11 -23z"/>
<path d="M7461 3959 c-65 -13 -117 -51 -148 -112 -24 -45 -28 -63 -28 -142 0
-80 3 -97 31 -155 17 -36 59 -104 94 -150 198 -267 210 -527 30 -694 -66 -61
-153 -107 -250 -133 -105 -28 -322 -24 -480 10 -142 30 -424 123 -675 222
-532 211 -840 304 -1149 350 -144 21 -301 31 -293 19 3 -6 25 -11 49 -12 60
-3 108 -10 218 -33 277 -58 454 -117 820 -274 658 -282 1048 -397 1395 -412
310 -14 535 64 706 243 83 87 130 166 169 281 135 404 -32 907 -325 981 -66
17 -117 20 -164 11z"/>
<path d="M9021 3944 c0 -11 3 -14 6 -6 3 7 2 16 -1 19 -3 4 -6 -2 -5 -13z"/>
<path d="M9011 3894 c0 -11 3 -14 6 -6 3 7 2 16 -1 19 -3 4 -6 -2 -5 -13z"/>
<path d="M9002 3815 c0 -16 2 -22 5 -12 2 9 2 23 0 30 -3 6 -5 -1 -5 -18z"/>
<path d="M2796 3270 c-148 -59 -221 -240 -156 -388 28 -64 110 -143 167 -160
56 -17 151 -15 205 4 100 34 176 136 186 249 9 116 -49 225 -149 279 -71 39
-180 46 -253 16z"/>
<path d="M11061 3104 c-208 -41 -332 -146 -613 -517 -186 -245 -281 -358 -384
-458 -358 -345 -775 -449 -1333 -333 -63 13 -116 22 -119 20 -6 -6 195 -70
318 -101 289 -73 606 -73 840 0 232 73 435 209 829 555 208 182 271 230 372
280 120 61 182 73 329 65 105 -6 132 -4 165 9 82 35 123 106 112 198 -17 143
-124 249 -286 284 -81 17 -134 16 -230 -2z"/>
<path d="M2201 3014 c0 -11 3 -14 6 -6 3 7 2 16 -1 19 -3 4 -6 -2 -5 -13z"/>
<path d="M8808 2943 c-109 -41 -172 -108 -310 -327 -222 -352 -358 -440 -703
-453 -248 -10 -499 39 -782 151 -62 24 -111 40 -108 36 7 -12 202 -95 313
-134 206 -72 568 -147 852 -177 168 -18 445 -16 560 5 119 21 256 67 340 113
81 45 199 161 234 230 103 204 51 448 -114 538 -47 25 -68 30 -145 32 -68 3
-102 -1 -137 -14z"/>
<path d="M5753 2548 c142 -151 321 -394 489 -662 188 -300 243 -368 341 -422
133 -72 224 -1 182 144 -77 263 -430 610 -966 945 -59 37 -108 67 -110 67 -2
0 27 -33 64 -72z"/>
<path d="M3548 2599 c-149 -22 -260 -166 -245 -316 10 -99 79 -195 172 -239
38 -18 67 -24 120 -24 117 0 206 56 263 165 22 42 26 62 26 125 -1 45 -7 89
-17 110 -57 129 -182 199 -319 179z"/>
<path d="M6080 2456 c0 -2 48 -42 108 -89 126 -100 274 -230 475 -418 159
-150 206 -185 302 -230 84 -40 138 -38 143 4 12 99 -222 298 -608 519 -118 67
-420 221 -420 214z"/>
<path d="M3518 1643 c7 -3 16 -2 19 1 4 3 -2 6 -13 5 -11 0 -14 -3 -6 -6z"/>
<path d="M3558 1633 c6 -2 18 -2 25 0 6 3 1 5 -13 5 -14 0 -19 -2 -12 -5z"/>
</g>
</svg>
